<?xml version='1.0' encoding='utf-8'?>
<svg xmlns="http://www.w3.org/2000/svg" width="42cm" height="29.7cm" version="1.1" style="shape-rendering:geometricPrecision; text-rendering:geometricPrecision; image-rendering:optimizeQuality; fill-rule:evenodd; clip-rule:evenodd" viewBox="0 0 420000 297000"> <defs> <style type="text/css">  .fil2 {fill:#EE7A2E} .fil3 {fill:#EE7A2E} .fil0 {fill:url(#id0)} .fil1 {fill:url(#id1)}  </style> <linearGradient id="id0" gradientUnits="userSpaceOnUse" x1="217663.6" y1="90279.5" x2="205451.1" y2="183056.9"> <stop offset="0" style="stop-opacity:1; stop-color:#EF8641"/> <stop offset="1" style="stop-opacity:1; stop-color:#FFC163"/> </linearGradient> <linearGradient id="id1" gradientUnits="userSpaceOnUse" x1="210554.5" y1="122840" x2="203144.6" y2="195071.9"> <stop offset="0" style="stop-opacity:1; stop-color:#EE7A2E"/> <stop offset="1" style="stop-opacity:1; stop-color:#FFA600"/> </linearGradient> </defs> <g id="Layer_x0020_1"> <metadata id="CorelCorpID_0Corel-Layer"/> <path class="fil0" d="M172531.1 180568.4l31.2 2629.1 6297.1 36 80.7 -42996.3 -6348.4 0 -89.5 2327.5c-4391.4,-62.9 -5361.1,727 -8649.4,1726.8 -462,-5964.7 2204.7,-14736.2 4328.2,-19321 4726.9,-10206.3 13474.9,-18906.4 23761.5,-23451.8 18970.5,-8382.6 39788.4,-3667.2 53033,9528.8 3633.2,3619.8 7239.1,7980.2 9826,13785.7 2167.9,4865.5 4877.3,13162.4 4398,19458.8 -3411.8,-1041.6 -4349.4,-1797.7 -8604.2,-1727.1l-117.8 -2297.2 -6288.1 -36.6 -77.3 42994.4 6341.7 0.4 108.9 -2705.4c5838.4,122.1 11282.6,-2196.7 14612.9,-6409 9584.5,-12123 1380.6,-22883.7 1215.6,-23716.4 -127.5,-644.6 155.6,-3884.6 162.6,-4879.9 209,-29017.4 -22860.9,-55418.8 -55027.9,-55411.7 -31965.8,7.2 -55063.6,26189.6 -55028.2,55001.1 1.4,1296.8 307.8,4111.4 187.8,5113.5 -64.1,536.4 -1368.3,2602.2 -1777.9,3551 -5018.2,11627.2 1924.4,26586.8 17623.5,26799.3z"/> <path class="fil1" d="M193909.9 144526.3l0.7 33366c-4270.5,183.1 -7688.9,2074.1 -8921.8,6364 -2747.3,9559.2 9889,15071.5 15326.9,7750.5 2283.5,-3074.3 2441.1,-8512.1 2441.1,-12963.6l-8.5 -19607.4 -3463.7 -5.7 -4.5 -3356.8c82,-435.6 2103,-1520.8 2462.6,-1749.8l18463.7 -11487.9 10.9 29339c-3823.3,380.6 -6700.4,1929.3 -8128,5656.7 -1681,4388.7 501.5,8193.2 2829,10026.4 2747.2,2163.7 7343,2599.9 10357.8,306.2 2605.8,-1982.4 3689.8,-5534.5 3757.9,-10112.8 136.7,-9190 5.3,-18487.2 5.3,-27689.2 0,-9275.5 -28.1,-18555.7 1.9,-27830.5 -514,134 -24862.8,15404.1 -26424.7,16400.1 -679.7,433.5 -8444.7,5054.1 -8706.6,5594.8z"/> <polygon class="fil2" points="172591.7,140237.2 172562.3,183197.5 178859.4,183233.5 178940.1,140237.2 "/> <polygon class="fil3" points="244112.1,183225.5 250453.8,183225.9 250477.5,140267.7 244189.3,140256.4 "/> </g> </svg>